<mxfile host="65bd71144e">
    <diagram id="yoiTkQtxRxYIJAVMMLQo" name="Page-1">
        <mxGraphModel dx="707" dy="1312" grid="1" gridSize="10" guides="1" tooltips="1" connect="1" arrows="1" fold="1" page="1" pageScale="1" pageWidth="850" pageHeight="1100" math="0" shadow="0">
            <root>
                <mxCell id="0"/>
                <mxCell id="1" parent="0"/>
                <mxCell id="137" value="" style="group" vertex="1" connectable="0" parent="1">
                    <mxGeometry x="1275" y="400" width="600" height="1460" as="geometry"/>
                </mxCell>
                <mxCell id="134" value="Pelanggan" style="swimlane;" vertex="1" parent="137">
                    <mxGeometry width="280" height="1460" as="geometry"/>
                </mxCell>
                <mxCell id="289" style="edgeStyle=none;html=1;entryX=0.5;entryY=0;entryDx=0;entryDy=0;" edge="1" parent="134" source="290" target="292">
                    <mxGeometry relative="1" as="geometry"/>
                </mxCell>
                <mxCell id="290" value="" style="ellipse;fillColor=strokeColor;html=1;" vertex="1" parent="134">
                    <mxGeometry x="129.9999999999991" y="60" width="20" height="20" as="geometry"/>
                </mxCell>
                <mxCell id="291" style="edgeStyle=none;html=1;" edge="1" parent="134" source="292" target="293">
                    <mxGeometry relative="1" as="geometry"/>
                </mxCell>
                <mxCell id="292" value="masuk ke aplikasi" style="rounded=1;whiteSpace=wrap;html=1;" vertex="1" parent="134">
                    <mxGeometry x="79.99999999999955" y="110" width="120" height="40" as="geometry"/>
                </mxCell>
                <mxCell id="293" value="mencari menu yang ingin dipesan" style="rounded=1;whiteSpace=wrap;html=1;" vertex="1" parent="134">
                    <mxGeometry x="79.99999999999955" y="170" width="120" height="40" as="geometry"/>
                </mxCell>
                <mxCell id="294" value="" style="edgeStyle=none;html=1;" edge="1" parent="134" source="295" target="297">
                    <mxGeometry relative="1" as="geometry"/>
                </mxCell>
                <mxCell id="295" value="memilih menu" style="rounded=1;whiteSpace=wrap;html=1;" vertex="1" parent="134">
                    <mxGeometry x="79.99999999999955" y="240" width="120" height="40" as="geometry"/>
                </mxCell>
                <mxCell id="296" value="" style="edgeStyle=none;html=1;" edge="1" parent="134" source="297" target="298">
                    <mxGeometry relative="1" as="geometry"/>
                </mxCell>
                <mxCell id="297" value="melihat informasi detail menu" style="whiteSpace=wrap;html=1;rounded=1;" vertex="1" parent="134">
                    <mxGeometry x="80" y="300" width="120" height="30" as="geometry"/>
                </mxCell>
                <mxCell id="298" value="memasukan menu ke keranjang" style="whiteSpace=wrap;html=1;rounded=1;" vertex="1" parent="134">
                    <mxGeometry x="80" y="350" width="120" height="60" as="geometry"/>
                </mxCell>
                <mxCell id="299" value="membuat orderan" style="whiteSpace=wrap;html=1;rounded=1;" vertex="1" parent="134">
                    <mxGeometry x="80" y="445" width="120" height="50" as="geometry"/>
                </mxCell>
                <mxCell id="300" value="cek ulang orderan" style="whiteSpace=wrap;html=1;rounded=1;" vertex="1" parent="134">
                    <mxGeometry x="80" y="540" width="120" height="40" as="geometry"/>
                </mxCell>
                <mxCell id="301" style="edgeStyle=none;html=1;" edge="1" parent="134" source="302" target="306">
                    <mxGeometry relative="1" as="geometry"/>
                </mxCell>
                <mxCell id="302" value="memilih metode pembayaran" style="whiteSpace=wrap;html=1;rounded=1;" vertex="1" parent="134">
                    <mxGeometry x="80" y="700" width="120" height="40" as="geometry"/>
                </mxCell>
                <mxCell id="303" style="edgeStyle=orthogonalEdgeStyle;html=1;entryX=0.5;entryY=0;entryDx=0;entryDy=0;rounded=0;curved=0;" edge="1" parent="134" source="306" target="307">
                    <mxGeometry relative="1" as="geometry"/>
                </mxCell>
                <mxCell id="304" style="edgeStyle=none;html=1;" edge="1" parent="134" source="306" target="309">
                    <mxGeometry relative="1" as="geometry"/>
                </mxCell>
                <mxCell id="305" style="edgeStyle=orthogonalEdgeStyle;html=1;entryX=0.5;entryY=0;entryDx=0;entryDy=0;rounded=0;curved=0;" edge="1" parent="134" source="306" target="310">
                    <mxGeometry relative="1" as="geometry"/>
                </mxCell>
                <mxCell id="306" value="" style="points=[[0.25,0.25,0],[0.5,0,0],[0.75,0.25,0],[1,0.5,0],[0.75,0.75,0],[0.5,1,0],[0.25,0.75,0],[0,0.5,0]];shape=mxgraph.bpmn.gateway2;html=1;verticalLabelPosition=bottom;labelBackgroundColor=#ffffff;verticalAlign=top;align=center;perimeter=rhombusPerimeter;outlineConnect=0;outline=standard;symbol=general;" vertex="1" parent="134">
                    <mxGeometry x="114.99999999999955" y="770" width="50" height="50" as="geometry"/>
                </mxCell>
                <mxCell id="307" value="Bank" style="whiteSpace=wrap;html=1;rounded=1;" vertex="1" parent="134">
                    <mxGeometry x="25" y="840" width="60" height="20" as="geometry"/>
                </mxCell>
                <mxCell id="308" style="edgeStyle=none;html=1;" edge="1" parent="134" source="309" target="312">
                    <mxGeometry relative="1" as="geometry"/>
                </mxCell>
                <mxCell id="309" value="Cash" style="whiteSpace=wrap;html=1;rounded=1;" vertex="1" parent="134">
                    <mxGeometry x="110" y="840" width="60" height="20" as="geometry"/>
                </mxCell>
                <mxCell id="310" value="Qris" style="whiteSpace=wrap;html=1;rounded=1;" vertex="1" parent="134">
                    <mxGeometry x="195" y="840" width="60" height="20" as="geometry"/>
                </mxCell>
                <mxCell id="311" style="edgeStyle=none;html=1;" edge="1" parent="134" source="312" target="315">
                    <mxGeometry relative="1" as="geometry"/>
                </mxCell>
                <mxCell id="312" value="" style="points=[[0.25,0.25,0],[0.5,0,0],[0.75,0.25,0],[1,0.5,0],[0.75,0.75,0],[0.5,1,0],[0.25,0.75,0],[0,0.5,0]];shape=mxgraph.bpmn.gateway2;html=1;verticalLabelPosition=bottom;labelBackgroundColor=#ffffff;verticalAlign=top;align=center;perimeter=rhombusPerimeter;outlineConnect=0;outline=end;symbol=general;" vertex="1" parent="134">
                    <mxGeometry x="115" y="900" width="50" height="50" as="geometry"/>
                </mxCell>
                <mxCell id="313" style="edgeStyle=orthogonalEdgeStyle;html=1;entryX=0;entryY=0.5;entryDx=0;entryDy=0;entryPerimeter=0;rounded=0;curved=0;" edge="1" parent="134" source="307" target="312">
                    <mxGeometry relative="1" as="geometry">
                        <Array as="points">
                            <mxPoint x="60" y="925"/>
                        </Array>
                    </mxGeometry>
                </mxCell>
                <mxCell id="314" style="edgeStyle=orthogonalEdgeStyle;html=1;entryX=1;entryY=0.5;entryDx=0;entryDy=0;entryPerimeter=0;rounded=0;curved=0;" edge="1" parent="134" source="310" target="312">
                    <mxGeometry relative="1" as="geometry">
                        <Array as="points">
                            <mxPoint x="220" y="925"/>
                        </Array>
                    </mxGeometry>
                </mxCell>
                <mxCell id="315" value="melakukan pembayaran" style="whiteSpace=wrap;html=1;rounded=1;" vertex="1" parent="134">
                    <mxGeometry x="80" y="970" width="120" height="40" as="geometry"/>
                </mxCell>
                <mxCell id="316" style="edgeStyle=none;html=1;" edge="1" parent="134" source="317" target="318">
                    <mxGeometry relative="1" as="geometry"/>
                </mxCell>
                <mxCell id="317" value="menerima pesanan&lt;span style=&quot;font-family: monospace; font-size: 0px; text-align: start; text-wrap-mode: nowrap;&quot;&gt;%3CmxGraphModel%3E%3Croot%3E%3CmxCell%20id%3D%220%22%2F%3E%3CmxCell%20id%3D%221%22%20parent%3D%220%22%2F%3E%3CmxCell%20id%3D%222%22%20value%3D%22mengelola%20laporan%20penjualan%26amp%3Bnbsp%3B%22%20style%3D%22whiteSpace%3Dwrap%3Bhtml%3D1%3Brounded%3D1%3B%22%20vertex%3D%221%22%20parent%3D%221%22%3E%3CmxGeometry%20x%3D%22990%22%20y%3D%221600%22%20width%3D%22120%22%20height%3D%2250%22%20as%3D%22geometry%22%2F%3E%3C%2FmxCell%3E%3C%2Froot%3E%3C%2FmxGraphModel%3E&lt;/span&gt;" style="whiteSpace=wrap;html=1;rounded=1;" vertex="1" parent="134">
                    <mxGeometry x="80" y="1220" width="120" height="50" as="geometry"/>
                </mxCell>
                <mxCell id="318" value="memberikan rating dan ulasan" style="whiteSpace=wrap;html=1;rounded=1;" vertex="1" parent="134">
                    <mxGeometry x="80" y="1310" width="120" height="50" as="geometry"/>
                </mxCell>
                <mxCell id="135" value="Sistem" style="swimlane;startSize=23;" vertex="1" parent="137">
                    <mxGeometry x="280" width="270" height="1460" as="geometry"/>
                </mxCell>
                <mxCell id="319" value="menampilkan produk yang tersedia" style="rounded=1;whiteSpace=wrap;html=1;" vertex="1" parent="135">
                    <mxGeometry x="79.99999999999955" y="170" width="120" height="40" as="geometry"/>
                </mxCell>
                <mxCell id="320" value="" style="edgeStyle=none;html=1;" edge="1" parent="135" source="321" target="322">
                    <mxGeometry relative="1" as="geometry"/>
                </mxCell>
                <mxCell id="321" value="menyimpan pesanan ke dalam keranjang" style="whiteSpace=wrap;html=1;rounded=1;" vertex="1" parent="135">
                    <mxGeometry x="80" y="360" width="120" height="40" as="geometry"/>
                </mxCell>
                <mxCell id="322" value="menampilkan keranjang pesanan" style="whiteSpace=wrap;html=1;rounded=1;" vertex="1" parent="135">
                    <mxGeometry x="80" y="440" width="120" height="60" as="geometry"/>
                </mxCell>
                <mxCell id="323" value="menampilkan orderan" style="whiteSpace=wrap;html=1;rounded=1;" vertex="1" parent="135">
                    <mxGeometry x="80" y="530" width="120" height="60" as="geometry"/>
                </mxCell>
                <mxCell id="324" style="edgeStyle=none;html=1;" edge="1" parent="135" source="325" target="326">
                    <mxGeometry relative="1" as="geometry"/>
                </mxCell>
                <mxCell id="325" value="mengkofirmasi pesanan" style="whiteSpace=wrap;html=1;rounded=1;" vertex="1" parent="135">
                    <mxGeometry x="80" y="630" width="120" height="40" as="geometry"/>
                </mxCell>
                <mxCell id="326" value="menampilkan rincian pesanan dan total pembayaran&amp;nbsp;&amp;nbsp;" style="whiteSpace=wrap;html=1;rounded=1;" vertex="1" parent="135">
                    <mxGeometry x="80" y="700" width="120" height="40" as="geometry"/>
                </mxCell>
                <mxCell id="327" value="" style="edgeStyle=none;html=1;" edge="1" parent="135" source="328" target="329">
                    <mxGeometry relative="1" as="geometry"/>
                </mxCell>
                <mxCell id="328" value="verifikasi pembayaran" style="whiteSpace=wrap;html=1;rounded=1;" vertex="1" parent="135">
                    <mxGeometry x="80" y="970" width="120" height="40" as="geometry"/>
                </mxCell>
                <mxCell id="329" value="membuat invoice pesanan" style="whiteSpace=wrap;html=1;rounded=1;" vertex="1" parent="135">
                    <mxGeometry x="80" y="1050" width="120" height="30" as="geometry"/>
                </mxCell>
                <mxCell id="330" value="" style="ellipse;html=1;shape=endState;fillColor=strokeColor;" vertex="1" parent="135">
                    <mxGeometry x="117" y="1400" width="30" height="30" as="geometry"/>
                </mxCell>
                <mxCell id="331" style="edgeStyle=none;html=1;entryX=0.45;entryY=0.189;entryDx=0;entryDy=0;entryPerimeter=0;" edge="1" parent="135" source="332" target="330">
                    <mxGeometry relative="1" as="geometry">
                        <mxPoint x="130" y="1420" as="targetPoint"/>
                    </mxGeometry>
                </mxCell>
                <mxCell id="332" value="menyimpan data rating dan ulasan pelanggan" style="whiteSpace=wrap;html=1;rounded=1;" vertex="1" parent="135">
                    <mxGeometry x="70" y="1310" width="120" height="50" as="geometry"/>
                </mxCell>
                <mxCell id="338" style="edgeStyle=none;html=1;" edge="1" parent="137" source="293" target="319">
                    <mxGeometry relative="1" as="geometry"/>
                </mxCell>
                <mxCell id="339" style="edgeStyle=orthogonalEdgeStyle;html=1;entryX=0.5;entryY=0;entryDx=0;entryDy=0;" edge="1" parent="137" source="319" target="295">
                    <mxGeometry relative="1" as="geometry">
                        <Array as="points">
                            <mxPoint x="420" y="230"/>
                            <mxPoint x="140" y="230"/>
                        </Array>
                    </mxGeometry>
                </mxCell>
                <mxCell id="340" style="edgeStyle=none;html=1;" edge="1" parent="137" source="298" target="321">
                    <mxGeometry relative="1" as="geometry"/>
                </mxCell>
                <mxCell id="341" style="edgeStyle=none;html=1;entryX=1;entryY=0.5;entryDx=0;entryDy=0;" edge="1" parent="137" source="322" target="299">
                    <mxGeometry relative="1" as="geometry"/>
                </mxCell>
                <mxCell id="342" style="edgeStyle=orthogonalEdgeStyle;html=1;entryX=0.5;entryY=0;entryDx=0;entryDy=0;" edge="1" parent="137" source="299" target="323">
                    <mxGeometry relative="1" as="geometry">
                        <Array as="points">
                            <mxPoint x="140" y="520"/>
                            <mxPoint x="420" y="520"/>
                        </Array>
                    </mxGeometry>
                </mxCell>
                <mxCell id="343" style="edgeStyle=none;html=1;" edge="1" parent="137" source="323" target="300">
                    <mxGeometry relative="1" as="geometry"/>
                </mxCell>
                <mxCell id="344" style="edgeStyle=orthogonalEdgeStyle;html=1;entryX=0.5;entryY=0;entryDx=0;entryDy=0;" edge="1" parent="137" source="300" target="325">
                    <mxGeometry relative="1" as="geometry">
                        <Array as="points">
                            <mxPoint x="140" y="610"/>
                            <mxPoint x="420" y="610"/>
                        </Array>
                    </mxGeometry>
                </mxCell>
                <mxCell id="345" style="edgeStyle=none;html=1;entryX=1;entryY=0.5;entryDx=0;entryDy=0;" edge="1" parent="137" source="326" target="302">
                    <mxGeometry relative="1" as="geometry"/>
                </mxCell>
                <mxCell id="346" style="edgeStyle=none;html=1;" edge="1" parent="137" source="315" target="328">
                    <mxGeometry relative="1" as="geometry"/>
                </mxCell>
                <mxCell id="349" style="edgeStyle=none;html=1;" edge="1" parent="137" source="318" target="332">
                    <mxGeometry relative="1" as="geometry"/>
                </mxCell>
                <mxCell id="136" value="Penjual" style="swimlane;startSize=23;" vertex="1" parent="1">
                    <mxGeometry x="1825" y="400" width="255" height="1460" as="geometry"/>
                </mxCell>
                <mxCell id="333" style="edgeStyle=none;html=1;" edge="1" parent="136" source="334" target="336">
                    <mxGeometry relative="1" as="geometry"/>
                </mxCell>
                <mxCell id="334" value="mengelola data transaksi dan pesanan&amp;nbsp;" style="whiteSpace=wrap;html=1;rounded=1;" vertex="1" parent="136">
                    <mxGeometry x="67.5" y="1040" width="120" height="50" as="geometry"/>
                </mxCell>
                <mxCell id="335" style="edgeStyle=none;html=1;" edge="1" parent="136" source="336" target="337">
                    <mxGeometry relative="1" as="geometry"/>
                </mxCell>
                <mxCell id="336" value="membuat pesanan&amp;nbsp;" style="whiteSpace=wrap;html=1;rounded=1;" vertex="1" parent="136">
                    <mxGeometry x="67.5" y="1130" width="120" height="50" as="geometry"/>
                </mxCell>
                <mxCell id="337" value="mengelola laporan penjualan&amp;nbsp;" style="whiteSpace=wrap;html=1;rounded=1;" vertex="1" parent="136">
                    <mxGeometry x="67.5" y="1220" width="120" height="50" as="geometry"/>
                </mxCell>
                <mxCell id="347" style="edgeStyle=none;html=1;" edge="1" parent="1" source="329" target="334">
                    <mxGeometry relative="1" as="geometry"/>
                </mxCell>
                <mxCell id="348" style="edgeStyle=none;html=1;" edge="1" parent="1" source="337" target="317">
                    <mxGeometry relative="1" as="geometry"/>
                </mxCell>
                <mxCell id="350" value="Diagram Heading" style="shape=umlFrame;whiteSpace=wrap;html=1;pointerEvents=0;recursiveResize=0;container=1;collapsible=0;width=160;" vertex="1" parent="1">
                    <mxGeometry x="1220" y="350" width="910" height="1550" as="geometry"/>
                </mxCell>
            </root>
        </mxGraphModel>
    </diagram>
</mxfile>